<svg width="977" height="655" viewBox="0 0 977 655" fill="none" xmlns="http://www.w3.org/2000/svg">
<path d="M762.829 288.113C796.19 253.346 632.641 132.358 497.582 121.327C373.238 111.173 208.959 160.339 375.745 233.021C534.664 302.276 745.396 306.279 762.829 288.113Z" fill="#5061FF"/>
<path d="M109.605 263.691C187.497 164.914 351.068 269.245 491.028 294.589C630.989 319.934 858.637 279.666 858.066 390.822C857.459 509.336 806.974 576.009 530.069 607.855C253.161 639.698 126.382 541.562 90.1767 437.084C61.9927 355.755 88.7874 290.092 109.605 263.691Z" fill="#5061FF"/>
<path d="M279.979 241.006L299.751 232.6C299.957 229.173 300.348 225.725 300.953 222.261C301.84 217.185 303.139 212.282 304.8 207.582L289.848 192.156C292.485 186.355 295.601 180.838 299.139 175.669L320.052 180.503C325.489 173.871 331.822 168.066 338.83 163.249L335.792 141.968C341.266 138.859 347.019 136.215 352.983 134.075L367.045 150.283C375.169 148.147 383.679 147.129 392.371 147.369L402.391 128.37C404.549 128.62 406.715 128.925 408.886 129.304C412.997 130.023 417.012 130.972 420.927 132.118L422.783 153.507C430.863 156.654 438.313 160.903 444.98 166.047L464.243 156.573C468.904 160.851 473.172 165.522 477.018 170.52L465.956 188.948C470.54 196.099 474.128 203.913 476.559 212.147L491.84 214.798L487.455 239.891L480.091 243.025C479.889 246.452 479.494 249.9 478.89 253.357C478.002 258.44 476.703 263.343 475.042 268.043L481.391 274.591L477.103 299.126L459.789 295.122C454.358 301.755 448.026 307.554 441.016 312.377L444.054 333.664C438.575 336.772 432.826 339.411 426.864 341.55L412.797 325.341C404.673 327.478 396.162 328.502 387.475 328.257L377.456 347.256C375.294 347.005 373.127 346.7 370.96 346.321C366.845 345.602 362.832 344.66 358.919 343.514L357.059 322.118C348.979 318.971 341.534 314.716 334.862 309.578L315.602 319.059C310.942 314.775 306.671 310.097 302.825 305.105L313.884 286.683C309.302 279.526 305.717 271.719 303.283 263.478L282.13 259.808C280.886 253.683 280.154 247.393 279.979 241.006V241.006ZM432.408 245.234C436.516 221.733 420.825 199.353 397.361 195.252C373.897 191.152 351.546 206.884 347.439 230.385C343.331 253.893 359.021 276.273 382.485 280.373C405.949 284.474 428.3 268.742 432.408 245.234Z" fill="#BEDCFF" stroke="#263038" stroke-width="3"/>
<path d="M515.217 398L510.602 390.76C509.255 390.915 507.887 390.999 506.499 390.999C504.464 390.999 502.468 390.824 500.527 390.492L495.543 397.473C493.106 396.831 490.748 395.98 488.497 394.937L488.956 386.33C486.006 384.638 483.318 382.534 480.967 380.094L472.896 382.768C471.314 380.817 469.894 378.724 468.657 376.513L474.006 369.829C472.622 366.763 471.648 363.467 471.15 360.012L463.078 357.361C463.029 356.49 463 355.612 463 354.727C463 353.051 463.096 351.397 463.276 349.769L471.47 347.556C472.145 344.142 473.292 340.902 474.839 337.908L469.845 330.943C471.192 328.803 472.718 326.792 474.402 324.925L482.322 328.027C484.792 325.719 487.588 323.76 490.626 322.228L490.618 316H500.678L502.398 318.697C503.745 318.539 505.113 318.457 506.499 318.457C508.536 318.457 510.532 318.632 512.473 318.964L514.589 316H524.424L524.044 323.126C526.993 324.816 529.68 326.92 532.033 329.36L540.107 326.687C541.688 328.639 543.106 330.731 544.343 332.942L538.994 339.627C540.378 342.693 541.355 345.989 541.85 349.443L549.922 352.093C549.971 352.966 550 353.844 550 354.727C550 356.405 549.906 358.057 549.726 359.685L541.53 361.9C540.855 365.314 539.706 368.553 538.161 371.548L543.158 378.511C541.808 380.651 540.279 382.664 538.598 384.531L530.68 381.429C528.208 383.737 525.415 385.695 522.374 387.228L522.384 395.849C520.086 396.765 517.689 397.49 515.217 398V398ZM506.499 337.407C497.077 337.407 489.438 345.161 489.438 354.727C489.438 364.293 497.077 372.047 506.499 372.047C515.923 372.047 523.562 364.293 523.562 354.727C523.562 345.161 515.923 337.407 506.499 337.407Z" fill="white" stroke="#121C28" stroke-width="3"/>
<path d="M643.677 389.86C632.246 413.122 617.915 476.687 614.007 480.17C610.095 483.653 587.51 497.149 583.602 503.681C579.694 510.21 581.426 508.034 583.167 508.47C584.903 508.904 683.065 509.341 683.065 509.341C683.065 509.341 671.772 441.857 670.471 441.421C669.166 440.985 643.677 389.86 643.677 389.86" fill="#4396F8"/>
<path d="M643.677 389.86C632.246 413.122 617.915 476.687 614.007 480.17C610.095 483.653 587.51 497.149 583.602 503.681C579.694 510.21 581.426 508.034 583.167 508.47C584.903 508.904 683.065 509.341 683.065 509.341C683.065 509.341 671.772 441.857 670.471 441.421C669.166 440.985 643.677 389.86 643.677 389.86" stroke="#263038" stroke-width="3"/>
<path d="M627.428 509.023C645.455 509.151 664.478 509.25 674.954 509.3L660.614 423.343C652.966 408.482 643.68 389.858 643.68 389.858C642.242 392.79 640.755 396.365 639.245 400.376C637.759 464.936 647.038 483.033 640.068 494.536C634.63 503.512 629.669 507.528 627.428 509.023Z" fill="#1A62B8" stroke="#263038" stroke-width="3"/>
<path d="M703.879 361.783C720.18 376.868 756.472 391.173 756.472 391.173C756.472 391.173 761.987 442.24 758.224 471.154C754.46 500.069 756.549 505.936 756.549 505.936L678.186 506.603C678.186 506.603 671.678 491.966 653.293 448.524C641.589 420.868 643.678 389.86 643.678 389.86L689.249 369.326L703.879 361.783" fill="#4396F8"/>
<path d="M703.879 361.783C720.18 376.868 756.472 391.173 756.472 391.173C756.472 391.173 761.987 442.24 758.224 471.154C754.46 500.069 756.549 505.936 756.549 505.936L678.186 506.603C678.186 506.603 671.678 491.966 653.293 448.524C641.589 420.868 643.678 389.86 643.678 389.86L689.249 369.326L703.879 361.783" stroke="#263038" stroke-width="3"/>
<path d="M681.726 505.936H756.554C756.554 505.936 754.463 500.069 758.227 471.154C761.324 447.345 758.132 408.518 756.909 395.549L750.103 392.625C733.021 397.559 723.173 423.104 720.277 448.067C718.34 464.77 690.733 481.212 672.674 490.264C678.607 501.601 681.726 505.936 681.726 505.936" fill="#1A62B8"/>
<path d="M681.726 505.936H756.554C756.554 505.936 754.463 500.069 758.227 471.154C761.324 447.345 758.132 408.518 756.909 395.549L750.103 392.625C733.021 397.559 723.173 423.104 720.277 448.067C718.34 464.77 690.733 481.212 672.674 490.264C678.607 501.601 681.726 505.936 681.726 505.936" stroke="#263038" stroke-width="3"/>
<path d="M684.9 376.22L691.28 376.912L693.735 384.529C693.735 384.529 688.123 391.111 688.008 393.763C687.892 396.415 689.243 406.339 689.318 415.34C689.388 424.341 686.095 460.173 687.59 482.122C689.09 504.071 689.09 504.071 689.09 504.071L676.265 504.572C676.265 504.572 675.575 480.426 676.265 454.576C676.955 428.727 684.297 393.763 684.297 393.763L681.401 384.875L684.9 376.22" fill="#D47670"/>
<path d="M684.9 376.22L691.28 376.912L693.735 384.529C693.735 384.529 688.123 391.111 688.008 393.763C687.892 396.415 689.243 406.339 689.318 415.34C689.388 424.341 686.095 460.173 687.59 482.122C689.09 504.071 689.09 504.071 689.09 504.071L676.265 504.572C676.265 504.572 675.575 480.426 676.265 454.576C676.955 428.727 684.297 393.763 684.297 393.763L681.401 384.875L684.9 376.22" stroke="#751010" stroke-width="3"/>
<path d="M663.376 309.368C654.358 329.506 665.181 348.161 664.854 347.375C664.527 346.59 678.508 313.375 678.508 313.375L663.376 309.368Z" fill="#2E5B9A" stroke="black" stroke-width="3"/>
<path d="M697.56 324.259L709 366.175C709.321 367.357 709.046 368.617 708.277 369.57C705.592 372.882 701.77 379.697 694.064 381.883C692.567 382.308 690.72 382.423 689.223 382.428C687.655 382.435 686.302 381.325 686.002 379.778L678.337 340.023L697.56 324.259Z" fill="#FFAC92" stroke="#6D2424" stroke-width="3"/>
<path d="M695.376 327.763L691.193 329.48L678.338 340.023L683.272 365.224L685.24 375.27C696.942 367.957 701.233 356.024 695.376 327.763Z" fill="#6D2424" stroke="#6D2424" stroke-width="3"/>
<path d="M694.665 343.267C694.673 357.288 686.24 368.332 675.83 367.935C665.423 367.54 659.035 359.647 656.966 341.833C655.34 327.859 659.37 311.597 669.776 311.993C680.187 312.388 694.656 329.248 694.665 343.267" fill="#FFAC92"/>
<path d="M694.665 343.267C694.673 357.288 686.24 368.332 675.83 367.935C665.423 367.54 659.035 359.647 656.966 341.833C655.34 327.859 659.37 311.597 669.776 311.993C680.187 312.388 694.656 329.248 694.665 343.267" stroke="#6D2424" stroke-width="3"/>
<path d="M756.473 391.173C771.614 394.6 774.427 425.426 779.351 457.936C779.917 461.678 782.828 493.348 782.828 493.348C782.828 493.348 783.114 499.152 777.324 502.056C772.377 504.537 770.374 506.411 741.707 506.7C714.173 506.979 678.672 505.83 678.672 505.83C678.672 505.83 678.359 495.562 681.186 490.542C685.431 482.997 728.962 472.158 733.02 471.579C733.596 463.45 729.019 434.044 735.332 414.105C739.68 400.389 744.347 393.206 750.197 391.327C752.149 390.702 754.227 390.665 756.473 391.173Z" fill="#4396F8" stroke="#263038" stroke-width="3"/>
<path d="M694.24 506.455C707.814 506.661 726.444 506.854 741.707 506.7C770.374 506.411 772.373 504.537 777.321 502.056C783.116 499.153 783.403 494.218 783.403 494.218C783.403 494.218 780.477 460.519 779.932 456.775C776.747 435.004 773.305 410.094 765.295 398.069C772.82 420.191 774.034 438.856 774.17 446.828C774.236 450.867 773.864 456.395 772.688 460.258C771.386 464.54 768.06 467.224 762.844 465.772C752.421 462.871 739.388 468.966 739.388 468.966C739.388 468.966 749.237 465.483 758.498 468.676C767.769 471.868 786.879 493.057 766.028 500.895C759.651 503.293 721.435 505.251 694.24 506.455" fill="#1A62B8"/>
<path d="M694.24 506.455C707.814 506.661 726.444 506.854 741.707 506.7C770.374 506.411 772.373 504.537 777.321 502.056C783.116 499.153 783.403 494.218 783.403 494.218C783.403 494.218 780.477 460.519 779.932 456.775C776.747 435.004 773.305 410.094 765.295 398.069C772.82 420.191 774.034 438.856 774.17 446.828C774.236 450.867 773.864 456.395 772.688 460.258C771.386 464.54 768.06 467.224 762.844 465.772C752.421 462.871 739.388 468.966 739.388 468.966C739.388 468.966 749.237 465.483 758.498 468.676C767.769 471.868 786.879 493.057 766.028 500.895C759.651 503.293 721.435 505.251 694.24 506.455" stroke="#263038" stroke-width="3"/>
<path d="M526.768 508.304H525.268V506.804V500.122V498.622H526.768H653.114C657.626 498.622 661.28 502.288 661.28 506.804V508.304H659.78H526.768Z" fill="#7AA3D3" stroke="#263038" stroke-width="3"/>
<path d="M680.62 490.462C664.587 483.07 660.054 484.949 656.41 483.536C647.406 480.047 644.902 482.163 637.543 498.042C636.073 501.206 639.555 501.709 643.019 502.007C646.48 502.303 651.284 495.916 652.699 495.261C654.11 494.606 657.796 494.532 657.796 494.532C657.796 494.532 656.644 494.432 654.615 497.756C652.59 501.077 650.357 502.247 653.05 502.478C655.742 502.706 656.506 498.305 661.427 499.697C666.344 501.088 665.338 505.783 677.877 505.377C689.778 504.991 698.665 506.185 699.103 498.649C699.52 491.496 700.61 487.998 693.964 486.167C688.855 484.76 680.62 490.462 680.62 490.462" fill="#FFAC92"/>
<path d="M680.62 490.462C664.587 483.07 660.054 484.949 656.41 483.536C647.406 480.047 644.902 482.163 637.543 498.042C636.073 501.206 639.555 501.709 643.019 502.007C646.48 502.303 651.284 495.916 652.699 495.261C654.11 494.606 657.796 494.532 657.796 494.532C657.796 494.532 656.644 494.432 654.615 497.756C652.59 501.077 650.357 502.247 653.05 502.478C655.742 502.706 656.506 498.305 661.427 499.697C666.344 501.088 665.338 505.783 677.877 505.377C689.778 504.991 698.665 506.185 699.103 498.649C699.52 491.496 700.61 487.998 693.964 486.167C688.855 484.76 680.62 490.462 680.62 490.462" stroke="#6D2424" stroke-width="3"/>
<path d="M680.836 490.481C692.002 490.174 687.58 503.708 686.328 504.765C685.075 505.824 692.454 505.697 692.454 505.697C692.454 505.697 696.358 500.451 694.014 493.843C691.67 487.233 685.925 486.451 685.925 486.451L680.79 488.729L680.836 490.481" fill="#7AA3D3"/>
<path d="M680.836 490.481C692.002 490.174 687.58 503.708 686.328 504.765C685.075 505.824 692.454 505.697 692.454 505.697C692.454 505.697 696.358 500.451 694.014 493.843C691.67 487.233 685.925 486.451 685.925 486.451L680.79 488.729L680.836 490.481" stroke="#263038" stroke-width="3"/>
<path d="M691.947 487.755C692.037 489.477 689.305 491.019 685.851 491.196C682.393 491.376 679.52 490.128 679.43 488.406C679.343 486.684 682.072 485.143 685.53 484.965C688.983 484.785 691.856 486.033 691.947 487.755" fill="#325176"/>
<path d="M691.947 487.755C692.037 489.477 689.305 491.019 685.851 491.196C682.393 491.376 679.52 490.128 679.43 488.406C679.343 486.684 682.072 485.143 685.53 484.965C688.983 484.785 691.856 486.033 691.947 487.755" stroke="black" stroke-width="3"/>
<path d="M593.758 491.499C602.004 486.908 612.079 488.438 615.744 493.029C619.406 497.619 620.017 500.68 611.774 500.68C603.531 500.68 587.042 501.292 584.294 500.987C581.545 500.68 593.758 491.499 593.758 491.499" fill="#FFAC92"/>
<path d="M593.758 491.499C602.004 486.908 612.079 488.438 615.744 493.029C619.406 497.619 620.017 500.68 611.774 500.68C603.531 500.68 587.042 501.292 584.294 500.987C581.545 500.68 593.758 491.499 593.758 491.499" stroke="#6D2424" stroke-width="3"/>
<path d="M604.474 489.901C613.329 487.76 619.377 492.925 626.763 497.86C633.173 502.143 634.462 506.309 627.374 502.755C616.992 497.552 610.884 496.941 610.884 496.941L604.474 489.901" fill="#FFAC92"/>
<path d="M604.474 489.901C613.329 487.76 619.377 492.925 626.763 497.86C633.173 502.143 634.462 506.309 627.374 502.755C616.992 497.552 610.884 496.941 610.884 496.941L604.474 489.901" stroke="#6D2424" stroke-width="3"/>
<path d="M594.589 493.923C590.118 493.923 586.213 492.492 583.06 492.757C579.902 493.02 569.906 503.302 571.484 504.094C571.597 504.149 571.72 504.202 571.851 504.251C574.226 505.126 576.904 504.157 578.243 502.005C579.656 499.73 581.957 497.082 584.635 498.029C589.106 499.612 593.8 499.46 593.8 499.46L594.589 493.923" fill="#F09959"/>
<path d="M594.589 493.923C590.118 493.923 586.213 492.492 583.06 492.757C579.902 493.02 569.906 503.302 571.484 504.094C571.597 504.149 571.72 504.202 571.851 504.251C574.226 505.126 576.904 504.157 578.243 502.005C579.656 499.73 581.957 497.082 584.635 498.029C589.106 499.612 593.8 499.46 593.8 499.46L594.589 493.923" stroke="black" stroke-width="3"/>
<path d="M595.285 502.517C590.703 500.68 598.034 485.378 600.478 485.378C602.918 485.378 612.079 492.722 612.079 492.722C612.079 492.722 609.922 493.941 602.613 491.499C600.779 490.887 599.254 501.292 597.115 502.517C594.98 503.741 595.285 502.517 595.285 502.517" fill="#FFAC92"/>
<path d="M595.285 502.517C590.703 500.68 598.034 485.378 600.478 485.378C602.918 485.378 612.079 492.722 612.079 492.722C612.079 492.722 609.922 493.941 602.613 491.499C600.779 490.887 599.254 501.292 597.115 502.517C594.98 503.741 595.285 502.517 595.285 502.517" stroke="#6D2424" stroke-width="3"/>
<path d="M683.615 367.065L685.763 378.536L679.491 392.144L672.677 377.719L683.615 367.065Z" fill="#4396F8" stroke="#263038" stroke-width="3"/>
<path d="M658.417 349.76C661.054 366.408 667.203 368.169 671.559 369.687C675.909 371.208 692.2 364.349 693.931 359.788C698.375 348.123 691.209 339.342 692.661 339.224C694.113 339.108 696.17 342.949 700.863 347.558C701.299 347.987 704.321 350.812 704.245 349.7C703.233 334.543 710.094 328.508 705.494 313.84C702.099 303.026 695.256 305.201 695.256 305.201C695.256 305.201 689.03 296.781 675.152 300.437C665.858 302.887 658.129 308.125 648.873 312.433C639.617 316.739 664.901 334.889 676.019 324.487C687.142 314.087 684.192 333.008 686.435 334.017C688.674 335.028 687.426 334.024 690.012 342.946C692.598 351.869 682.173 359.938 679.016 361.328C668.918 365.773 666.831 364.353 663.788 360.796C661.143 357.711 658.417 349.76 658.417 349.76" fill="#FFC38B"/>
<path d="M658.417 349.76C661.054 366.408 667.203 368.169 671.559 369.687C675.909 371.208 692.2 364.349 693.931 359.788C698.375 348.123 691.209 339.342 692.661 339.224C694.113 339.108 696.17 342.949 700.863 347.558C701.299 347.987 704.321 350.812 704.245 349.7C703.233 334.543 710.094 328.508 705.494 313.84C702.099 303.026 695.256 305.201 695.256 305.201C695.256 305.201 689.03 296.781 675.152 300.437C665.858 302.887 658.129 308.125 648.873 312.433C639.617 316.739 664.901 334.889 676.019 324.487C687.142 314.087 684.192 333.008 686.435 334.017C688.674 335.028 687.426 334.024 690.012 342.946C692.598 351.869 682.173 359.938 679.016 361.328C668.918 365.773 666.831 364.353 663.788 360.796C661.143 357.711 658.417 349.76 658.417 349.76" stroke="#6D2424" stroke-width="3"/>
<path d="M701.165 336.538C700.722 340.94 698.26 344.185 695.664 343.79C693.068 343.393 692.37 340.012 691.764 335.103C691.216 330.678 694.665 327.456 697.261 327.853C699.857 328.25 701.604 332.139 701.165 336.538Z" fill="#FFAC92" stroke="#6D2424" stroke-width="3"/>
<path d="M708.052 362.716L719.428 373.335C719.428 373.335 697.547 393.991 695.651 393.761C693.755 393.53 690.542 376.22 690.542 376.22L708.052 362.716" fill="#4396F8"/>
<path d="M708.052 362.716L719.428 373.335C719.428 373.335 697.547 393.991 695.651 393.761C693.755 393.53 690.542 376.22 690.542 376.22L708.052 362.716" stroke="#263038" stroke-width="3"/>
<path d="M690.877 375.963C688.78 376.951 689.453 379.954 688.562 380.997C687.67 382.04 687.142 382.322 686.424 380.868C685.706 379.413 685.826 376.129 685.269 375.963C684.712 375.797 680.49 389.028 680.49 389.028C680.49 389.028 683.589 380.567 684.299 381.491C685.005 382.414 684.443 383.273 687.01 383.427C689.581 383.579 692.845 382.495 692.845 382.495L690.877 375.963" fill="#D47670"/>
<path d="M690.877 375.963C688.78 376.951 689.453 379.954 688.562 380.997C687.67 382.04 687.142 382.322 686.424 380.868C685.706 379.413 685.826 376.129 685.269 375.963C684.712 375.797 680.49 389.028 680.49 389.028C680.49 389.028 683.589 380.567 684.299 381.491C685.005 382.414 684.443 383.273 687.01 383.427C689.581 383.579 692.845 382.495 692.845 382.495L690.877 375.963" stroke="#751010" stroke-width="3"/>
<path d="M526.61 506.804H597.656L567.487 440.271C566.605 438.33 564.675 437.084 562.546 437.084H498.284C496.743 437.084 495.719 438.681 496.357 440.087L526.61 506.804Z" fill="#BEDCFF" stroke="#263038" stroke-width="3"/>
<path d="M491.379 437.083H556.947C559.076 437.083 561.005 438.329 561.886 440.271L592.056 506.803H519.704L489.453 440.086C488.814 438.68 489.839 437.083 491.379 437.083" fill="#7AA3D3"/>
<path d="M491.379 437.083H556.947C559.076 437.083 561.005 438.329 561.886 440.271L592.056 506.803H519.704L489.453 440.086C488.814 438.68 489.839 437.083 491.379 437.083" stroke="#263038" stroke-width="3"/>
<path d="M527.559 475.819C530.045 480.984 534.082 484.195 536.571 482.99C539.063 481.785 539.066 476.62 536.58 471.454C534.091 466.289 530.058 463.079 527.566 464.283C525.073 465.488 525.07 470.651 527.559 475.819" fill="white"/>
<path d="M527.559 475.819C530.045 480.984 534.082 484.195 536.571 482.99C539.063 481.785 539.066 476.62 536.58 471.454C534.091 466.289 530.058 463.079 527.566 464.283C525.073 465.488 525.07 470.651 527.559 475.819" stroke="#263038" stroke-width="3"/>
<path d="M244.667 313.578C264.81 297.906 283.729 306.213 290.506 327.426C296.835 347.24 288.724 389.813 258.674 382.395C227.587 374.719 224.997 365.18 225.233 351.316C225.422 340.237 230.135 324.885 244.667 313.578" fill="#213144"/>
<path d="M244.667 313.578C264.81 297.906 283.729 306.213 290.506 327.426C296.835 347.24 288.724 389.813 258.674 382.395C227.587 374.719 224.997 365.18 225.233 351.316C225.422 340.237 230.135 324.885 244.667 313.578" stroke="#00192A" stroke-width="3"/>
<path d="M234.2 376.413L205.406 387.182C205.406 387.182 213.465 445.805 214.156 468.193C214.847 490.58 203.564 510.002 203.564 510.002H278.855C278.855 510.002 289.217 449.036 287.144 427.572C285.072 406.108 270.797 383.87 270.106 383.335C269.415 382.797 252.146 378.873 252.146 378.873L234.2 376.413Z" fill="white" stroke="#263038" stroke-width="3"/>
<path d="M284.842 448.575C284.842 448.575 287.744 475.809 288.941 477.194C290.138 478.579 334.346 500.272 334.346 500.272L270.106 504.659L284.842 448.575Z" fill="#08BF93" stroke="#263038" stroke-width="3"/>
<path d="M257.902 429.649C253.988 415.57 232.958 376.367 232.958 376.367L205.406 387.182C205.406 387.182 211.722 433.127 213.65 459.201L224.116 510.002H257.902C257.902 510.002 261.817 443.728 257.902 429.649Z" fill="#00FFC1" stroke="#263038" stroke-width="3"/>
<path d="M234.547 492.658C229.482 485.785 224.527 478.219 229.353 462.423C234.178 446.627 234.648 440.959 232.958 426.649C231.268 412.339 223.596 389.49 208.63 388.798C208.63 388.798 208.137 393.802 207.339 401.79C209.769 420.657 213.684 452.891 214.156 468.193C214.847 490.581 203.564 510.002 203.564 510.002L264.81 511.353C264.81 511.353 239.613 499.533 234.547 492.658Z" fill="#08BF93" stroke="#263038" stroke-width="3"/>
<path d="M287.145 427.572C285.072 406.108 270.797 383.87 270.106 383.335C269.68 383.002 262.922 381.377 257.822 380.184C259.321 383.732 275.139 421.518 274.481 437.083C273.79 453.422 274.502 510.002 274.502 510.002H278.856C278.856 510.002 289.217 449.036 287.145 427.572Z" fill="#00FFC1" stroke="#263038" stroke-width="3"/>
<path d="M836.126 513.647H110.711C108.764 513.647 107.186 512.066 107.186 510.113V509.892C107.186 507.941 108.764 506.358 110.711 506.358H836.126C838.072 506.358 839.65 507.941 839.65 509.892V510.113C839.65 512.066 838.072 513.647 836.126 513.647Z" fill="#325176" stroke="#121C28" stroke-width="3"/>
<mask id="path-58-outside-1_228_2" maskUnits="userSpaceOnUse" x="484.583" y="150.674" width="90" height="40" fill="black">
<rect fill="white" x="484.583" y="150.674" width="90" height="40"/>
<path d="M568.867 188.674H490.246C488.23 188.674 486.583 187.02 486.583 185.002V156.845C486.583 154.824 488.23 153.17 490.246 153.17H568.867C570.879 153.17 572.529 154.824 572.529 156.845V185.002C572.529 187.02 570.879 188.674 568.867 188.674"/>
</mask>
<path d="M568.867 188.674H490.246C488.23 188.674 486.583 187.02 486.583 185.002V156.845C486.583 154.824 488.23 153.17 490.246 153.17H568.867C570.879 153.17 572.529 154.824 572.529 156.845V185.002C572.529 187.02 570.879 188.674 568.867 188.674" fill="#7AA3D3"/>
<path d="M568.867 190.674H490.246V186.674H568.867V190.674ZM490.246 190.674C487.119 190.674 484.583 188.118 484.583 185.002H488.583C488.583 185.921 489.34 186.674 490.246 186.674V190.674ZM484.583 185.002V156.845H488.583V185.002H484.583ZM484.583 156.845C484.583 153.727 487.118 151.17 490.246 151.17V155.17C489.341 155.17 488.583 155.922 488.583 156.845H484.583ZM490.246 151.17H568.867V155.17H490.246V151.17ZM568.867 151.17C571.989 151.17 574.529 153.725 574.529 156.845H570.529C570.529 155.923 569.769 155.17 568.867 155.17V151.17ZM574.529 156.845V185.002H570.529V156.845H574.529ZM574.529 185.002C574.529 188.12 571.988 190.674 568.867 190.674V186.674C569.77 186.674 570.529 185.919 570.529 185.002H574.529Z" fill="#263038" mask="url(#path-58-outside-1_228_2)"/>
<path d="M496.964 189.718V202.905L512 189.718C512 189.718 497.42 189.718 496.964 189.718Z" fill="#9EC8FF" stroke="#263038" stroke-width="2"/>
<path d="M564.98 185.151H494.137C492.427 185.151 491.028 183.75 491.028 182.038V159.802C491.028 158.09 492.427 156.689 494.137 156.689H564.98C566.687 156.689 568.086 158.09 568.086 159.802V182.038C568.086 183.75 566.687 185.151 564.98 185.151" fill="white"/>
<path d="M532.99 163.729H498.185C497.343 163.729 496.658 163.04 496.658 162.199C496.658 161.357 497.343 160.668 498.185 160.668H532.99C533.833 160.668 534.517 161.357 534.517 162.199C534.517 163.04 533.833 163.729 532.99 163.729Z" fill="#7AA3D3"/>
<path d="M562.064 169.58H497.507C497.041 169.58 496.658 169.196 496.658 168.729V168.709C496.658 168.242 497.041 167.861 497.507 167.861H562.064C562.53 167.861 562.913 168.242 562.913 168.709V168.729C562.913 169.196 562.53 169.58 562.064 169.58Z" fill="#7AA3D3"/>
<path d="M562.064 172.911H497.507C497.041 172.911 496.658 172.527 496.658 172.06V172.04C496.658 171.573 497.041 171.189 497.507 171.189H562.064C562.53 171.189 562.913 171.573 562.913 172.04V172.06C562.913 172.527 562.53 172.911 562.064 172.911Z" fill="#7AA3D3"/>
<path d="M548.721 181.928H546.604C546.159 181.928 545.799 181.566 545.799 181.117V179.372C545.799 178.923 546.159 178.562 546.604 178.562H548.721C549.166 178.562 549.53 178.923 549.53 179.372V181.117C549.53 181.566 549.166 181.928 548.721 181.928Z" fill="#7AA3D3"/>
<path d="M555.502 181.931H553.391C552.944 181.931 552.582 181.565 552.582 181.12V179.373C552.582 178.925 552.944 178.562 553.391 178.562H555.502C555.95 178.562 556.312 178.925 556.312 179.373V181.12C556.312 181.565 555.95 181.931 555.502 181.931Z" fill="#7AA3D3"/>
<path d="M562.288 181.931H560.177C559.73 181.931 559.367 181.567 559.367 181.12V179.374C559.367 178.926 559.73 178.562 560.177 178.562H562.288C562.734 178.562 563.097 178.926 563.097 179.374V181.12C563.097 181.567 562.734 181.931 562.288 181.931Z" fill="#7AA3D3"/>
<path d="M387.784 506.804H254.773C254.773 502.077 258.596 498.248 263.309 498.248H387.784V506.804Z" fill="#7AA3D3" stroke="#263038" stroke-width="3"/>
<path d="M387.94 506.804H316.896L347.066 440.271C347.947 438.33 349.878 437.084 352.006 437.084H416.265C417.806 437.084 418.833 438.681 418.195 440.086L387.94 506.804" fill="#BEDCFF"/>
<path d="M387.94 506.804H316.896L347.066 440.271C347.947 438.33 349.878 437.084 352.006 437.084H416.265C417.806 437.084 418.833 438.681 418.195 440.086L387.94 506.804" stroke="#263038" stroke-width="3"/>
<path d="M416.265 437.084H357.609C355.481 437.084 353.549 438.33 352.669 440.271L322.499 506.804H387.94L418.195 440.086C418.833 438.681 417.806 437.084 416.265 437.084" fill="#7AA3D3"/>
<path d="M416.265 437.084H357.609C355.481 437.084 353.549 438.33 352.669 440.271L322.499 506.804H387.94L418.195 440.086C418.833 438.681 417.806 437.084 416.265 437.084" stroke="#263038" stroke-width="3"/>
<path d="M382.622 474.124C380.135 479.29 376.099 482.502 373.608 481.298C371.119 480.093 371.114 474.928 373.601 469.762C376.087 464.597 380.124 461.384 382.615 462.589C385.106 463.794 385.109 468.959 382.622 474.124" fill="white"/>
<path d="M382.622 474.124C380.135 479.29 376.099 482.502 373.608 481.298C371.119 480.093 371.114 474.928 373.601 469.762C376.087 464.597 380.124 461.384 382.615 462.589C385.106 463.794 385.109 468.959 382.622 474.124" stroke="#263038" stroke-width="3"/>
<path d="M246.907 340.113C246.907 340.113 240.871 371.001 234.2 376.413C227.529 381.825 249.553 407.929 257.177 401.24C264.801 394.554 257.707 379.917 257.707 379.917C257.707 379.917 253.578 377.368 260.567 361.129C267.555 344.888 248.741 332.79 248.741 332.79L246.907 340.113Z" fill="#FFAC92" stroke="#6D2424" stroke-width="3"/>
<path d="M248.742 332.79L246.907 340.113C246.907 340.113 246.067 344.41 244.668 350.079C247.276 362.277 252.151 370.207 256.512 375.25C256.639 372.439 257.604 368.014 260.567 361.129C267.555 344.888 248.742 332.79 248.742 332.79Z" fill="#6D2424" stroke="#6D2424" stroke-width="3"/>
<path d="M285.072 351.87C281.018 363.082 271.106 372.083 264.81 370.006C254.53 366.613 247.045 358.558 248.813 340.75C250.894 319.777 266.996 317.372 276.45 320.052C285.906 322.731 289.562 339.462 285.072 351.87Z" fill="#FFAC92" stroke="#6D2424" stroke-width="3"/>
<path d="M232.958 376.367L223.232 380.184L238.562 399.876L234.188 407.723C234.188 407.723 249.976 419.605 254.773 442.627C259.572 465.649 259.049 485.265 259.049 485.265C259.049 485.265 260.228 438.574 257.903 429.649C253.394 412.339 232.958 376.367 232.958 376.367" fill="#08BF93"/>
<path d="M232.958 376.367L223.232 380.184L238.562 399.876L234.188 407.723C234.188 407.723 249.976 419.605 254.773 442.627C259.572 465.649 259.049 485.265 259.049 485.265C259.049 485.265 260.228 438.574 257.903 429.649C253.394 412.339 232.958 376.367 232.958 376.367" stroke="#263038" stroke-width="3"/>
<path d="M257.822 380.184C257.822 380.184 269.956 411.416 271.881 420.205C273.806 428.994 274.198 471.943 274.198 471.943C274.198 471.943 279.777 434.496 278.165 423.418C276.553 412.339 274.251 402.329 274.251 402.329L266.883 396.876C266.883 396.876 265.49 382.024 264.707 381.832C263.924 381.638 257.822 380.184 257.822 380.184Z" fill="#08BF93" stroke="#263038" stroke-width="3"/>
<path d="M250.74 494.693C274.345 487.522 271.483 483.938 280.067 488C288.651 492.065 299.408 494.823 294.375 496.127C289.339 497.431 281.736 493.258 281.736 493.258C281.736 493.258 282.929 499.711 278.637 501.624C274.345 503.535 255.287 504.232 244.668 501.255C234.048 498.278 250.74 494.693 250.74 494.693Z" fill="#FFAC92" stroke="#6D2424" stroke-width="3"/>
<path d="M205.407 387.182C196.197 403.338 193.275 412.15 185.768 442.385C178.262 472.62 175.244 486.378 183.533 490.35C190.393 493.639 240.333 508.652 246.391 506.804C249.154 506.961 253.395 492.658 253.395 492.658L207.94 472.347C207.94 472.347 221.096 440.866 223.366 420.187C225.637 399.507 215.538 387.182 210.472 387.182C205.407 387.182 205.407 387.182 205.407 387.182" fill="#00FFC1"/>
<path d="M205.407 387.182C196.197 403.338 193.275 412.15 185.768 442.385C178.262 472.62 175.244 486.378 183.533 490.35C190.393 493.639 240.333 508.652 246.391 506.804C249.154 506.961 253.395 492.658 253.395 492.658L207.94 472.347C207.94 472.347 221.096 440.866 223.366 420.187C225.637 399.507 215.538 387.182 210.472 387.182C205.407 387.182 205.407 387.182 205.407 387.182" stroke="#263038" stroke-width="3"/>
<path d="M253.132 342.146C250.907 349.144 251.863 350.573 248.784 351.226C245.705 351.881 242.893 348.816 241.983 344.516C241.073 340.214 242.831 336.196 245.91 335.541C248.989 334.887 254.462 337.957 253.132 342.146" fill="#FFAC92"/>
<path d="M253.132 342.146C250.907 349.144 251.863 350.573 248.784 351.226C245.705 351.881 242.893 348.816 241.983 344.516C241.073 340.214 242.831 336.196 245.91 335.541C248.989 334.887 254.462 337.957 253.132 342.146" stroke="#6D2424" stroke-width="3"/>
<path d="M289.318 329.404C277.271 350.868 253.337 347.715 238.793 340.33C226.936 334.31 272.62 311.503 272.62 311.503L289.318 329.404Z" fill="#213144" stroke="#00192A" stroke-width="3"/>
<path d="M250.076 311.503C245.61 298.001 227.312 301.193 219.02 319.156C210.729 337.119 223.416 349.132 231.105 344.731C238.793 340.33 250.076 311.503 250.076 311.503Z" fill="#213144" stroke="#00192A" stroke-width="3"/>
<path d="M615.483 322.095H406.159V205.686H615.483V322.095Z" fill="#7AA3D3" stroke="#263038" stroke-width="3"/>
<path d="M609.492 314.25H408.461V208.226H609.492V314.25Z" fill="white"/>
<path d="M602.295 289.974H601.834H570.978V289.049H601.834H602.295C602.549 289.049 602.756 289.257 602.756 289.511C602.756 289.766 602.549 289.974 602.295 289.974ZM570.059 289.974H539.203V289.049H570.059V289.974ZM538.281 289.974H507.428V289.049H538.281V289.974ZM506.506 289.974H475.653V289.049H506.506V289.974ZM474.731 289.974H443.878V289.049H474.731V289.974ZM442.956 289.974H412.1H411.639C411.385 289.974 411.178 289.766 411.178 289.511C411.178 289.257 411.385 289.049 411.639 289.049H412.1H442.956V289.974Z" fill="#CEE3FF"/>
<path d="M602.295 274.014H601.834H570.978V273.093H601.834H602.295C602.549 273.093 602.756 273.298 602.756 273.552C602.756 273.81 602.549 274.014 602.295 274.014V274.014ZM570.059 274.014H539.203V273.093H570.059V274.014ZM538.281 274.014H507.428V273.093H538.281V274.014ZM506.506 274.014H475.653V273.093H506.506V274.014ZM474.731 274.014H443.878V273.093H474.731V274.014ZM442.956 274.014H412.1H411.639C411.385 274.014 411.178 273.81 411.178 273.552C411.178 273.298 411.385 273.093 411.639 273.093H412.1H442.956V274.014" fill="#CEE3FF"/>
<path d="M602.295 258.058H601.834H570.978V257.134H601.834H602.295C602.549 257.134 602.756 257.342 602.756 257.596C602.756 257.85 602.549 258.058 602.295 258.058ZM570.059 258.058H539.203V257.134H570.059V258.058ZM538.281 258.058H507.428V257.134H538.281V258.058ZM506.506 258.058H475.653V257.134H506.506V258.058ZM474.731 258.058H443.878V257.134H474.731V258.058ZM442.956 258.058H412.1H411.639C411.385 258.058 411.178 257.85 411.178 257.596C411.178 257.342 411.385 257.134 411.639 257.134H412.1H442.956V258.058Z" fill="#CEE3FF"/>
<path d="M602.295 242.102H601.834H570.978V241.178H601.834H602.295C602.549 241.178 602.756 241.386 602.756 241.64C602.756 241.895 602.549 242.102 602.295 242.102ZM570.059 242.102H539.203V241.178H570.059V242.102ZM538.281 242.102H507.428V241.178H538.281V242.102ZM506.506 242.102H475.653V241.178H506.506V242.102ZM474.731 242.102H443.878V241.178H474.731V242.102ZM442.956 242.102H412.1H411.639C411.385 242.102 411.178 241.895 411.178 241.64C411.178 241.386 411.385 241.178 411.639 241.178H412.1H442.956V242.102Z" fill="#CEE3FF"/>
<path d="M602.295 226.143H601.834H570.978V225.219H601.834H602.295C602.549 225.219 602.756 225.427 602.756 225.681C602.756 225.939 602.549 226.143 602.295 226.143ZM570.059 226.143H539.203V225.219H570.059V226.143ZM538.281 226.143H507.428V225.219H538.281V226.143ZM506.506 226.143H475.653V225.219H506.506V226.143ZM474.731 226.143H443.878V225.219H474.731V226.143ZM442.956 226.143H412.1H411.639C411.385 226.143 411.178 225.939 411.178 225.681C411.178 225.427 411.385 225.219 411.639 225.219H412.1H442.956V226.143Z" fill="#CEE3FF"/>
<path d="M570.52 305.93C570.266 305.93 570.057 305.723 570.057 305.469V305.005V289.974V289.049V274.015V273.093V258.059V257.134V242.103V241.178V226.144V225.222V210.188V209.724C570.057 209.47 570.266 209.263 570.52 209.263C570.773 209.263 570.979 209.47 570.979 209.724V210.188V225.222V226.144V241.178V242.103V257.134V258.059V273.093V274.015V289.049V289.974V305.005V305.469C570.979 305.723 570.773 305.93 570.52 305.93Z" fill="#CEE3FF"/>
<path d="M538.744 305.928C538.492 305.928 538.285 305.721 538.285 305.465V305.006V289.97V289.048V274.013V273.09V258.055V257.133V242.1V241.175V226.143V225.217V210.185V209.722C538.285 209.467 538.492 209.262 538.744 209.262C539.001 209.262 539.205 209.467 539.205 209.722V210.185V225.217V226.143V241.175V242.1V257.133V258.055V273.09V274.013V289.048V289.97V305.006V305.465C539.205 305.721 539.001 305.928 538.744 305.928Z" fill="#CEE3FF"/>
<path d="M506.968 305.929C506.711 305.929 506.508 305.722 506.508 305.467V305.006V289.971V289.049V274.014V273.091V258.06V257.134V242.102V241.176V226.145V225.219V210.187V209.726C506.508 209.471 506.711 209.265 506.968 209.265C507.222 209.265 507.428 209.471 507.428 209.726V210.187V225.219V226.145V241.176V242.102V257.134V258.06V273.091V274.014V289.049V289.971V305.006V305.467C507.428 305.722 507.222 305.929 506.968 305.929Z" fill="#CEE3FF"/>
<path d="M475.19 305.929C474.938 305.929 474.729 305.724 474.729 305.47V305.008V289.973V289.049V274.015V273.093V258.059V257.135V242.101V241.179V226.145V225.221V210.187V209.724C474.729 209.47 474.938 209.265 475.19 209.265C475.447 209.265 475.651 209.47 475.651 209.724V210.187V225.221V226.145V241.179V242.101V257.135V258.059V273.093V274.015V289.049V289.973V305.008V305.47C475.651 305.724 475.447 305.929 475.19 305.929Z" fill="#CEE3FF"/>
<path d="M443.42 305.929C443.163 305.929 442.958 305.721 442.958 305.466V305.003V289.971V289.048V274.013V273.09V258.055V257.132V242.098V241.174V226.142V225.219V210.185V209.722C442.958 209.467 443.163 209.261 443.42 209.261C443.671 209.261 443.879 209.467 443.879 209.722V210.185V225.219V226.142V241.174V242.098V257.132V258.055V273.09V274.013V289.048V289.971V305.003V305.466C443.879 305.721 443.671 305.929 443.42 305.929Z" fill="#CEE3FF"/>
<path d="M411.641 306.391C411.305 306.391 410.979 306.204 410.818 305.881C410.589 305.424 410.772 304.87 411.23 304.641L442.877 288.749L459.2 273.004L474.36 241.241C474.414 241.13 474.489 241.029 474.579 240.95L491.814 225.557C492.032 225.363 492.329 225.284 492.611 225.345C492.898 225.403 493.137 225.593 493.259 225.858L507.79 257.172L525.05 287.917L538.049 272.946C538.217 272.753 538.457 272.638 538.715 272.631C538.976 272.616 539.219 272.72 539.398 272.903L554.19 287.798L569.647 241.345C569.693 241.212 569.768 241.087 569.868 240.986L601.645 209.073C602.006 208.711 602.589 208.711 602.947 209.069C603.308 209.432 603.308 210.016 602.951 210.375L571.328 242.137L555.463 289.803C555.363 290.104 555.113 290.337 554.798 290.409C554.49 290.48 554.161 290.387 553.936 290.161L538.79 274.908L525.583 290.115C525.386 290.341 525.093 290.459 524.796 290.427C524.499 290.398 524.234 290.222 524.087 289.964L506.165 258.047C506.155 258.026 506.144 258.008 506.133 257.986L492.114 227.762L475.942 242.205L460.792 273.95C460.746 274.051 460.681 274.14 460.599 274.219L444.054 290.176C443.99 290.24 443.911 290.294 443.829 290.333L412.053 306.292C411.92 306.359 411.781 306.391 411.641 306.391" fill="#D47670"/>
<path d="M411.641 306.391C411.408 306.391 411.176 306.304 410.997 306.129C410.632 305.773 410.625 305.188 410.983 304.823L457.575 256.953C457.926 256.591 458.498 256.58 458.863 256.924L475.169 272.269L506.314 240.988C506.672 240.63 507.244 240.626 507.606 240.974L523.479 256.29L538.075 241.003C538.25 240.823 538.486 240.719 538.733 240.716C538.973 240.716 539.22 240.813 539.395 240.988L570.265 271.993L601.471 209.313C601.696 208.858 602.251 208.671 602.705 208.901C603.159 209.127 603.345 209.683 603.116 210.138L571.341 273.965C571.209 274.23 570.959 274.417 570.665 274.464C570.372 274.514 570.075 274.417 569.868 274.205L538.755 242.961L524.173 258.233C524.001 258.413 523.769 258.513 523.525 258.52C523.282 258.527 523.042 258.431 522.867 258.262L506.98 242.932L475.842 274.205C475.491 274.56 474.922 274.568 474.561 274.227L458.262 258.89L412.299 306.113C412.117 306.298 411.881 306.391 411.641 306.391" fill="#00FFC1"/>
<path d="M411.485 261.906H357.101V163.458C357.101 162.263 358.066 161.295 359.259 161.295H423.61C424.799 161.295 425.768 162.263 425.768 163.458V247.589C425.768 255.495 419.373 261.906 411.485 261.906" fill="white"/>
<path d="M411.485 261.906H357.101V163.458C357.101 162.263 358.066 161.295 359.259 161.295H423.61C424.799 161.295 425.768 162.263 425.768 163.458V247.589C425.768 255.495 419.373 261.906 411.485 261.906" stroke="#263038" stroke-width="3"/>
<path d="M395.818 243.066V241.597C395.818 240.438 394.882 239.501 393.726 239.501H329.242C328.086 239.501 327.15 240.438 327.15 241.597V243.066C327.15 253.471 335.564 261.907 345.947 261.907H414.611C404.233 261.907 395.818 256.871 395.818 243.066Z" fill="white" stroke="#263038" stroke-width="3"/>
<path d="M367.511 171.841C366.466 171.841 365.617 172.695 365.617 173.739V200.452C365.617 201.496 366.466 202.35 367.511 202.35H416.561C417.602 202.35 418.451 201.496 418.451 200.452V173.739C418.451 172.695 417.602 171.841 416.561 171.841H367.511ZM416.561 203.272H367.511C365.959 203.272 364.694 202.008 364.694 200.452V173.739C364.694 172.183 365.959 170.919 367.511 170.919H416.561C418.11 170.919 419.374 172.183 419.374 173.739V200.452C419.374 202.008 418.11 203.272 416.561 203.272Z" fill="#9EC8FF" stroke="#263038"/>
<path d="M417.306 214.237H366.393C365.626 214.237 365.001 213.608 365.001 212.84C365.001 212.072 365.626 211.445 366.393 211.445H417.306C418.074 211.445 418.7 212.072 418.7 212.84C418.7 213.608 418.074 214.237 417.306 214.237Z" fill="#7AA3D3"/>
<path d="M417.306 220.331H366.393C365.627 220.331 365.001 219.703 365.001 218.934C365.001 218.166 365.627 217.539 366.393 217.539H417.306C418.074 217.539 418.7 218.166 418.7 218.934C418.7 219.703 418.074 220.331 417.306 220.331Z" fill="#7AA3D3"/>
<path d="M417.304 226.249H366.392C365.627 226.249 365 225.62 365 224.851C365 224.084 365.627 223.455 366.392 223.455H417.304C418.072 223.455 418.699 224.084 418.699 224.851C418.699 225.62 418.072 226.249 417.304 226.249Z" fill="#7AA3D3"/>
<path d="M403.17 178.039H401.367C400.988 178.039 400.679 177.729 400.679 177.349V175.86C400.679 175.479 400.988 175.17 401.367 175.17H403.17C403.55 175.17 403.859 175.479 403.859 175.86V177.349C403.859 177.729 403.55 178.039 403.17 178.039Z" fill="#7AA3D3"/>
<path d="M408.951 178.039H407.147C406.768 178.039 406.459 177.729 406.459 177.349V175.86C406.459 175.479 406.768 175.17 407.147 175.17H408.951C409.33 175.17 409.639 175.479 409.639 175.86V177.349C409.639 177.729 409.33 178.039 408.951 178.039Z" fill="#7AA3D3"/>
<path d="M414.734 178.039H412.931C412.551 178.039 412.242 177.729 412.242 177.349V175.86C412.242 175.479 412.551 175.17 412.931 175.17H414.734C415.113 175.17 415.422 175.479 415.422 175.86V177.349C415.422 177.729 415.113 178.039 414.734 178.039Z" fill="#7AA3D3"/>
<path d="M377.321 199.109H370.061V187.095H377.321V199.109Z" fill="#FFC38B"/>
<path d="M397.332 199.109H390.075V188.096H397.332V199.109Z" fill="#FFC38B"/>
<path d="M408.907 199.109H401.649V183.179H408.907V199.109Z" fill="#4396F8"/>
<path d="M387.13 199.107H379.872V191.832H387.13V199.107Z" fill="#4396F8"/>
<path d="M806.13 278.76H831.971C831.971 292.971 820.308 304.665 806.13 304.665C791.951 304.665 780.288 292.971 780.288 278.76C780.288 264.55 791.951 252.856 806.13 252.856V278.76Z" fill="#BEDCFF" stroke="#263038" stroke-width="3"/>
<path d="M834.754 273.634C834.011 261.349 824.204 251.522 811.955 250.775V273.634H834.754Z" fill="#D47670" stroke="#121C28" stroke-width="3"/>
<path d="M494.717 226.247C494.717 224.977 493.692 223.95 492.426 223.95C491.162 223.95 490.135 224.977 490.135 226.247C490.135 227.516 491.162 228.543 492.426 228.543C493.692 228.543 494.717 227.516 494.717 226.247Z" fill="#D47670"/>
<path d="M460.638 257.596C460.638 256.326 459.614 255.299 458.347 255.299C457.082 255.299 456.056 256.326 456.056 257.596C456.056 258.863 457.082 259.893 458.347 259.893C459.614 259.893 460.638 258.863 460.638 257.596Z" fill="#00FFC1"/>
<path d="M509.26 241.639C509.26 240.37 508.234 239.341 506.968 239.341C505.702 239.341 504.679 240.37 504.679 241.639C504.679 242.908 505.702 243.936 506.968 243.936C508.234 243.936 509.26 242.908 509.26 241.639Z" fill="#00FFC1"/>
<path d="M541.037 241.64C541.037 240.368 540.011 239.34 538.743 239.34C537.481 239.34 536.452 240.368 536.452 241.64C536.452 242.908 537.481 243.936 538.743 243.936C540.011 243.936 541.037 242.908 541.037 241.64Z" fill="#00FFC1"/>
<path d="M572.81 241.638C572.81 240.37 571.786 239.341 570.518 239.341C569.254 239.341 568.227 240.37 568.227 241.638C568.227 242.909 569.254 243.935 570.518 243.935C571.786 243.935 572.81 242.909 572.81 241.638Z" fill="#D47670"/>
<path d="M351.668 264.55C351.668 271.395 346.134 276.945 339.303 276.945C332.475 276.945 326.938 271.395 326.938 264.55C326.938 257.706 332.475 252.156 339.303 252.156C346.134 252.156 351.668 257.706 351.668 264.55Z" fill="#00FFC1" stroke="#263038" stroke-width="3"/>
<path d="M338.075 268.88H338.051C337.859 268.873 337.68 268.788 337.557 268.645L334.198 264.822C333.946 264.533 333.975 264.097 334.261 263.844C334.546 263.592 334.982 263.619 335.234 263.905L338.111 267.185L344.766 260.654C345.04 260.387 345.478 260.392 345.742 260.666C346.01 260.938 346.005 261.377 345.732 261.644L338.559 268.684C338.431 268.81 338.254 268.88 338.075 268.88" fill="white"/>
<path d="M338.075 268.88H338.051C337.859 268.873 337.68 268.788 337.557 268.645L334.198 264.822C333.946 264.533 333.975 264.097 334.261 263.844C334.546 263.592 334.982 263.619 335.234 263.905L338.111 267.185L344.766 260.654C345.04 260.387 345.478 260.392 345.742 260.666C346.01 260.938 346.005 261.377 345.732 261.644L338.559 268.684C338.431 268.81 338.254 268.88 338.075 268.88" stroke="#263038" stroke-width="2"/>
<path d="M162.328 234.929V236.429H160.828H152.598H151.098V234.929V189.921V188.421H152.598H160.828H162.328V189.921V234.929Z" fill="#FFC38B" stroke="#263038" stroke-width="3"/>
<path d="M204.789 234.931V236.431H203.289H195.059H193.559V234.931V203.016V201.516H195.059H203.289H204.789V203.016V234.931Z" fill="#FFC38B" stroke="#263038" stroke-width="3"/>
<path d="M226.02 234.929V236.429H224.52H216.289H214.789V234.929V189.921V188.421H216.289H224.52H226.02V189.921V234.929Z" fill="#7AA3D3" stroke="#263038" stroke-width="3"/>
<path d="M247.25 234.928V236.428H245.75H237.52H236.02V234.928V218.971V217.471H237.52H245.75H247.25V218.971V234.928Z" fill="#FFC38B" stroke="#263038" stroke-width="3"/>
<path d="M183.559 234.929V236.429H182.059H173.828H172.328V234.929V176.219V174.719H173.828H182.059H183.559V176.219V234.929Z" fill="#7AA3D3" stroke="#263038" stroke-width="3"/>
<mask id="path-131-outside-2_228_2" maskUnits="userSpaceOnUse" x="255.75" y="199.931" width="15" height="38" fill="black">
<rect fill="white" x="255.75" y="199.931" width="15" height="38"/>
<path d="M266.981 234.931H258.75V203.016H266.981V234.931"/>
</mask>
<path d="M266.981 234.931H258.75V203.016H266.981V234.931" fill="#7AA3D3"/>
<path d="M258.75 234.931V237.931H255.75V234.931H258.75ZM258.75 203.016H255.75V200.016H258.75V203.016ZM266.981 203.016V200.016H269.981V203.016H266.981ZM266.981 237.931H258.75V231.931H266.981V237.931ZM255.75 234.931V203.016H261.75V234.931H255.75ZM258.75 200.016H266.981V206.016H258.75V200.016ZM269.981 203.016V234.931H263.981V203.016H269.981Z" fill="#263038" mask="url(#path-131-outside-2_228_2)"/>
<path d="M675.755 207.866V209.366H674.255H666.023H664.523V207.866V183.995V182.495H666.023H674.255H675.755V183.995V207.866Z" fill="#00FFC1" stroke="#263038" stroke-width="3"/>
<path d="M797.131 207.867V209.367H795.631H787.399H785.899V207.867V191.762V190.262H787.399H795.631H797.131V191.762V207.867Z" fill="#FFC38B" stroke="#263038" stroke-width="3"/>
<path d="M716.214 207.867V209.367H714.714H706.485H704.985V207.867V152.012V150.512H706.485H714.714H716.214V152.012V207.867Z" fill="#00FFC1" stroke="#263038" stroke-width="3"/>
<path d="M736.444 207.866V209.366H734.944H726.714H725.214V207.866V182.761V181.261H726.714H734.944H736.444V182.761V207.866Z" fill="#FFC38B" stroke="#263038" stroke-width="3"/>
<path d="M756.671 207.866V209.366H755.171H746.944H745.444V207.866V175.652V174.152H746.944H755.171H756.671V175.652V207.866Z" fill="#00FFC1" stroke="#263038" stroke-width="3"/>
<path d="M695.986 207.866V209.366H694.486H686.256H684.756V207.866V168.234V166.734H686.256H694.486H695.986V168.234V207.866Z" fill="#FFC38B" stroke="#263038" stroke-width="3"/>
<path d="M776.899 207.867V209.367H775.399H767.172H765.672V207.867V159.05V157.55H767.172H775.399H776.899V159.05V207.867Z" fill="#00FFC1" stroke="#263038" stroke-width="3"/>
<path d="M167.949 330.124L138.349 311.978L132.995 346.342C146.9 348.539 160.691 342.008 167.949 330.124" fill="#A2DFF2"/>
<path d="M167.949 330.124L138.349 311.978L132.995 346.342C146.9 348.539 160.691 342.008 167.949 330.124" stroke="black" stroke-width="3"/>
<path d="M167.98 330.082C168.06 329.951 168.164 329.771 168.16 329.778C174.412 319.281 174.664 306.243 168.929 295.543C158.454 301.043 164.692 297.701 138.35 311.978C167.998 330.154 163.393 327.349 167.98 330.082Z" fill="#00FFC1" stroke="black" stroke-width="3"/>
<path d="M105.812 299.959L138.35 311.978L168.873 295.435C154.595 268.966 116.164 272.142 105.812 299.959" fill="#4396F8"/>
<path d="M105.812 299.959L138.35 311.978L168.873 295.435C154.595 268.966 116.164 272.142 105.812 299.959" stroke="#263038" stroke-width="3"/>
<path d="M132.995 346.342L138.349 311.978L105.811 299.961C98.074 320.756 111.807 342.993 132.995 346.342Z" fill="#D47670" stroke="#121C28" stroke-width="3"/>
<mask id="path-146-inside-3_228_2" fill="white">
<path d="M134.314 345.361L139.221 313.866L151.992 321.693C157.141 324.852 160.086 326.659 161.941 327.791L166.35 330.495C159.317 341.185 146.96 346.92 134.314 345.361ZM109.371 328.806C104.498 320.443 103.475 310.536 106.508 301.448L127.941 309.365L137.067 312.734L132.039 345C122.544 343.165 114.328 337.31 109.371 328.806V328.806ZM107.312 299.285C112.218 287.315 123.174 279.379 136.172 278.476C149.013 277.579 160.834 283.881 167.296 294.977L158.281 299.863C156.42 300.868 153.819 302.277 149.463 304.641C146.672 306.155 143.16 308.059 138.663 310.495L138.385 310.647L137.479 310.093L137.429 310.407L123.174 305.143L107.312 299.285ZM166.045 298.356C166.727 297.998 167.508 297.589 168.436 297.101C173.315 307.01 172.996 318.867 167.573 328.496L167.353 328.367C166.144 327.648 165.618 327.336 163.208 325.862L140.657 312.041L159.377 301.894C162.126 300.41 163.253 299.819 166.045 298.356ZM169.516 329.73C175.398 319.366 175.733 306.569 170.414 295.911L170.433 295.899L169.886 294.885L169.852 294.825L169.404 293.988L169.386 293.998C165.933 287.983 161.008 283.185 155.085 280.091C149.284 277.064 142.69 275.707 136.012 276.172C122.099 277.14 110.378 285.655 105.153 298.488L105.134 298.481L104.733 299.557L104.329 300.644L104.348 300.651C101.078 310.388 102.161 321.011 107.382 329.968C112.691 339.077 121.502 345.337 131.684 347.281L131.681 347.302L132.815 347.482L133.955 347.662L133.958 347.641C135.431 347.826 136.906 347.916 138.378 347.916C143.555 347.916 148.683 346.784 153.451 344.559C159.556 341.709 164.684 337.254 168.348 331.641L168.371 331.655L168.596 331.285L168.963 330.682C169.02 330.59 169.087 330.476 169.125 330.409L169.15 330.37L169.167 330.338L169.533 329.739L169.516 329.73"/>
</mask>
<path d="M134.314 345.361L139.221 313.866L151.992 321.693C157.141 324.852 160.086 326.659 161.941 327.791L166.35 330.495C159.317 341.185 146.96 346.92 134.314 345.361ZM109.371 328.806C104.498 320.443 103.475 310.536 106.508 301.448L127.941 309.365L137.067 312.734L132.039 345C122.544 343.165 114.328 337.31 109.371 328.806V328.806ZM107.312 299.285C112.218 287.315 123.174 279.379 136.172 278.476C149.013 277.579 160.834 283.881 167.296 294.977L158.281 299.863C156.42 300.868 153.819 302.277 149.463 304.641C146.672 306.155 143.16 308.059 138.663 310.495L138.385 310.647L137.479 310.093L137.429 310.407L123.174 305.143L107.312 299.285ZM166.045 298.356C166.727 297.998 167.508 297.589 168.436 297.101C173.315 307.01 172.996 318.867 167.573 328.496L167.353 328.367C166.144 327.648 165.618 327.336 163.208 325.862L140.657 312.041L159.377 301.894C162.126 300.41 163.253 299.819 166.045 298.356ZM169.516 329.73C175.398 319.366 175.733 306.569 170.414 295.911L170.433 295.899L169.886 294.885L169.852 294.825L169.404 293.988L169.386 293.998C165.933 287.983 161.008 283.185 155.085 280.091C149.284 277.064 142.69 275.707 136.012 276.172C122.099 277.14 110.378 285.655 105.153 298.488L105.134 298.481L104.733 299.557L104.329 300.644L104.348 300.651C101.078 310.388 102.161 321.011 107.382 329.968C112.691 339.077 121.502 345.337 131.684 347.281L131.681 347.302L132.815 347.482L133.955 347.662L133.958 347.641C135.431 347.826 136.906 347.916 138.378 347.916C143.555 347.916 148.683 346.784 153.451 344.559C159.556 341.709 164.684 337.254 168.348 331.641L168.371 331.655L168.596 331.285L168.963 330.682C169.02 330.59 169.087 330.476 169.125 330.409L169.15 330.37L169.167 330.338L169.533 329.739L169.516 329.73" fill="#E7F3FE"/>
<path d="M134.314 345.361L133.946 348.338L130.872 347.959L131.349 344.899L134.314 345.361ZM139.221 313.866L136.257 313.404L136.95 308.956L140.789 311.308L139.221 313.866ZM151.992 321.693L153.56 319.135L153.561 319.136L151.992 321.693ZM161.941 327.791L163.504 325.231L163.509 325.234L161.941 327.791ZM166.35 330.495L167.918 327.938L170.558 329.557L168.856 332.144L166.35 330.495ZM106.508 301.448L103.663 300.498L104.643 297.561L107.548 298.634L106.508 301.448ZM127.941 309.365L126.902 312.179L126.902 312.179L127.941 309.365ZM137.067 312.734L138.106 309.92L140.409 310.77L140.031 313.196L137.067 312.734ZM132.039 345L135.003 345.462L134.524 348.536L131.47 347.946L132.039 345ZM107.312 299.285L106.273 302.099L103.358 301.022L104.536 298.147L107.312 299.285ZM136.172 278.476L136.381 281.468L136.38 281.468L136.172 278.476ZM167.296 294.977L169.889 293.468L171.446 296.141L168.725 297.615L167.296 294.977ZM158.281 299.863L159.711 302.5L159.707 302.502L158.281 299.863ZM149.463 304.641L150.894 307.278L150.893 307.278L149.463 304.641ZM138.663 310.495L137.22 307.864L137.227 307.861L137.234 307.857L138.663 310.495ZM138.385 310.647L139.828 313.277L138.303 314.114L136.819 313.206L138.385 310.647ZM137.479 310.093L134.515 309.625L135.215 305.19L139.044 307.534L137.479 310.093ZM137.429 310.407L140.392 310.874L139.822 314.489L136.39 313.221L137.429 310.407ZM123.174 305.143L122.134 307.957L122.134 307.957L123.174 305.143ZM166.045 298.356L167.44 301.012L167.437 301.013L166.045 298.356ZM168.436 297.101L167.041 294.445L169.767 293.013L171.128 295.776L168.436 297.101ZM167.573 328.496L170.186 329.968L168.685 332.633L166.05 331.081L167.573 328.496ZM167.353 328.367L165.83 330.952L165.82 330.946L167.353 328.367ZM163.208 325.862L161.643 328.421L161.64 328.42L163.208 325.862ZM140.657 312.041L139.089 314.598L134.655 311.881L139.227 309.403L140.657 312.041ZM159.377 301.894L157.948 299.256L157.952 299.254L159.377 301.894ZM170.414 295.911L167.73 297.251L166.487 294.761L168.877 293.335L170.414 295.911ZM170.433 295.899L173.073 294.474L174.439 297.003L171.971 298.476L170.433 295.899ZM169.886 294.885L172.494 293.403L172.51 293.431L172.526 293.46L169.886 294.885ZM169.852 294.825L167.243 296.306L167.225 296.274L167.207 296.241L169.852 294.825ZM169.404 293.988L167.988 291.343L170.633 289.928L172.048 292.572L169.404 293.988ZM169.386 293.998L170.802 296.643L168.235 298.017L166.785 295.491L169.386 293.998ZM155.085 280.091L156.473 277.431L156.474 277.432L155.085 280.091ZM136.012 276.172L135.804 273.179L135.804 273.179L136.012 276.172ZM105.153 298.488L107.931 299.619L106.844 302.29L104.132 301.308L105.153 298.488ZM105.134 298.481L102.322 297.434L103.359 294.648L106.155 295.66L105.134 298.481ZM104.733 299.557L101.921 298.512L101.921 298.511L104.733 299.557ZM104.329 300.644L103.308 303.464L100.463 302.434L101.517 299.598L104.329 300.644ZM104.348 300.651L105.37 297.83L108.125 298.828L107.192 301.606L104.348 300.651ZM107.382 329.968L109.974 328.457L109.974 328.458L107.382 329.968ZM131.684 347.281L132.246 344.334L135.062 344.872L134.653 347.709L131.684 347.281ZM131.681 347.302L131.21 350.264L128.29 349.8L128.712 346.874L131.681 347.302ZM132.815 347.482L132.347 350.445L132.344 350.445L132.815 347.482ZM133.955 347.662L136.929 348.056L136.525 351.106L133.487 350.625L133.955 347.662ZM133.958 347.641L130.984 347.247L131.376 344.294L134.332 344.665L133.958 347.641ZM153.451 344.559L154.72 347.277L154.72 347.277L153.451 344.559ZM168.348 331.641L165.835 330.001L167.415 327.581L169.893 329.07L168.348 331.641ZM168.371 331.655L170.932 333.217L169.38 335.762L166.825 334.226L168.371 331.655ZM168.596 331.285L171.158 332.846L171.157 332.847L168.596 331.285ZM168.963 330.682L171.526 332.242L171.526 332.242L168.963 330.682ZM169.125 330.409L166.52 328.922L166.545 328.878L166.572 328.835L169.125 330.409ZM169.15 330.37L171.78 331.813L171.743 331.88L171.703 331.945L169.15 330.37ZM169.167 330.338L166.537 328.895L166.57 328.834L166.606 328.775L169.167 330.338ZM169.533 329.739L170.99 327.117L173.721 328.635L172.094 331.302L169.533 329.739ZM131.349 344.899L136.257 313.404L142.185 314.328L137.278 345.822L131.349 344.899ZM140.789 311.308L153.56 319.135L150.424 324.251L137.653 316.424L140.789 311.308ZM153.561 319.136C158.711 322.296 161.653 324.101 163.504 325.231L160.377 330.352C158.52 329.217 155.57 327.408 150.423 324.25L153.561 319.136ZM163.509 325.234L167.918 327.938L164.781 333.052L160.373 330.349L163.509 325.234ZM168.856 332.144C161.2 343.782 147.732 350.038 133.946 348.338L134.681 342.383C146.188 343.802 157.434 338.588 163.843 328.846L168.856 332.144ZM106.778 330.316C101.474 321.212 100.354 310.41 103.663 300.498L109.354 302.398C106.595 310.663 107.522 319.674 111.963 327.295L106.778 330.316ZM107.548 298.634L128.981 306.551L126.902 312.179L105.469 304.262L107.548 298.634ZM128.98 306.55L138.106 309.92L136.027 315.548L126.902 312.179L128.98 306.55ZM140.031 313.196L135.003 345.462L129.075 344.538L134.102 312.272L140.031 313.196ZM131.47 347.946C121.112 345.944 112.165 339.556 106.779 330.317L111.962 327.295C116.491 335.063 123.976 340.387 132.608 342.055L131.47 347.946ZM104.536 298.147C109.876 285.119 121.828 276.466 135.964 275.483L136.38 281.468C124.52 282.293 114.56 289.51 110.088 300.422L104.536 298.147ZM135.963 275.483C149.951 274.506 162.854 281.389 169.889 293.468L164.704 296.487C158.813 286.373 148.076 280.652 136.381 281.468L135.963 275.483ZM168.725 297.615L159.711 302.5L156.852 297.225L165.867 292.34L168.725 297.615ZM159.707 302.502C157.849 303.506 155.249 304.914 150.894 307.278L148.032 302.005C152.388 299.64 154.992 298.23 156.856 297.223L159.707 302.502ZM150.893 307.278C148.102 308.792 144.59 310.697 140.092 313.133L137.234 307.857C141.731 305.421 145.242 303.518 148.032 302.004L150.893 307.278ZM140.106 313.125L139.828 313.277L136.942 308.017L137.22 307.864L140.106 313.125ZM136.819 313.206L135.913 312.652L139.044 307.534L139.951 308.088L136.819 313.206ZM140.442 310.56L140.392 310.874L134.466 309.94L134.515 309.625L140.442 310.56ZM136.39 313.221L122.134 307.957L124.213 302.329L138.468 307.593L136.39 313.221ZM122.134 307.957L106.273 302.099L108.352 296.471L124.213 302.329L122.134 307.957ZM164.65 295.7C165.358 295.328 166.092 294.944 167.041 294.445L169.832 299.757C168.924 300.234 168.096 300.667 167.44 301.012L164.65 295.7ZM171.128 295.776C176.443 306.571 176.097 319.475 170.186 329.968L164.959 327.024C169.896 318.259 170.187 307.448 165.745 298.426L171.128 295.776ZM166.05 331.081L165.83 330.952L168.875 325.782L169.095 325.911L166.05 331.081ZM165.82 330.946C164.6 330.22 164.063 329.902 161.643 328.421L164.774 323.303C167.173 324.77 167.688 325.076 168.886 325.788L165.82 330.946ZM161.64 328.42L139.089 314.598L142.224 309.483L164.776 323.304L161.64 328.42ZM139.227 309.403L157.948 299.256L160.807 304.531L142.086 314.678L139.227 309.403ZM157.952 299.254C160.717 297.762 161.856 297.164 164.653 295.698L167.437 301.013C164.65 302.474 163.535 303.059 160.802 304.534L157.952 299.254ZM166.907 328.249C172.295 318.755 172.603 307.015 167.73 297.251L173.098 294.571C178.863 306.122 178.501 319.977 172.125 331.211L166.907 328.249ZM168.877 293.335L168.896 293.323L171.971 298.476L171.951 298.487L168.877 293.335ZM167.794 297.325L167.246 296.31L172.526 293.46L173.073 294.474L167.794 297.325ZM167.277 296.367L167.243 296.306L172.46 293.343L172.494 293.403L167.277 296.367ZM167.207 296.241L166.759 295.404L172.048 292.572L172.496 293.409L167.207 296.241ZM170.819 296.633L170.802 296.643L167.971 291.353L167.988 291.343L170.819 296.633ZM166.785 295.491C163.603 289.95 159.089 285.568 153.696 282.75L156.474 277.432C162.926 280.803 168.262 286.015 171.988 292.504L166.785 295.491ZM153.697 282.751C148.398 279.986 142.358 278.738 136.22 279.165L135.804 273.179C143.022 272.677 150.17 274.142 156.473 277.431L153.697 282.751ZM136.22 279.165C123.449 280.053 112.724 287.847 107.931 299.619L102.374 297.356C108.031 283.464 120.75 274.227 135.804 273.179L136.22 279.165ZM104.132 301.308L104.113 301.301L106.155 295.66L106.174 295.667L104.132 301.308ZM107.946 299.527L107.545 300.604L101.921 298.511L102.322 297.434L107.946 299.527ZM107.545 300.603L107.141 301.689L101.517 299.598L101.921 298.512L107.545 300.603ZM105.351 297.823L105.37 297.83L103.327 303.471L103.308 303.464L105.351 297.823ZM107.192 301.606C104.198 310.52 105.187 320.244 109.974 328.457L104.79 331.479C99.1359 321.778 97.9571 310.257 101.505 299.695L107.192 301.606ZM109.974 328.458C114.852 336.828 122.929 342.556 132.246 344.334L131.121 350.228C120.075 348.119 110.529 341.327 104.79 331.479L109.974 328.458ZM134.653 347.709L134.65 347.729L128.712 346.874L128.715 346.853L134.653 347.709ZM132.152 344.339L133.286 344.519L132.344 350.445L131.21 350.264L132.152 344.339ZM133.283 344.519L134.424 344.699L133.487 350.625L132.347 350.445L133.283 344.519ZM130.981 347.268L130.984 347.247L136.932 348.036L136.929 348.056L130.981 347.268ZM134.332 344.665C135.678 344.834 137.029 344.916 138.378 344.916V350.916C136.784 350.916 135.184 350.819 133.584 350.618L134.332 344.665ZM138.378 344.916C143.115 344.916 147.81 343.881 152.183 341.84L154.72 347.277C149.556 349.687 143.995 350.916 138.378 350.916V344.916ZM152.182 341.84C157.78 339.228 162.478 335.146 165.835 330.001L170.86 333.281C166.89 339.362 161.332 344.191 154.72 347.277L152.182 341.84ZM169.893 329.07L169.916 329.084L166.825 334.226L166.802 334.212L169.893 329.07ZM165.809 330.093L166.035 329.723L171.157 332.847L170.932 333.217L165.809 330.093ZM166.034 329.725L166.401 329.122L171.526 332.242L171.158 332.846L166.034 329.725ZM166.401 329.123C166.452 329.039 166.502 328.953 166.52 328.922L171.731 331.897C171.672 332 171.588 332.141 171.526 332.242L166.401 329.123ZM166.572 328.835L166.596 328.796L171.703 331.945L171.679 331.984L166.572 328.835ZM166.519 328.927L166.537 328.895L171.798 331.781L171.78 331.813L166.519 328.927ZM166.606 328.775L166.972 328.177L172.094 331.302L171.728 331.9L166.606 328.775ZM168.075 332.361L168.058 332.352L170.974 327.108L170.99 327.117L168.075 332.361Z" fill="#121C28" mask="url(#path-146-inside-3_228_2)"/>
<path d="M749.781 258.689C749.781 262.705 746.531 265.966 742.519 265.966C738.504 265.966 735.253 262.706 735.253 258.689C735.253 254.673 738.504 251.413 742.519 251.413C746.531 251.413 749.781 254.674 749.781 258.689Z" fill="#BEDCFF" stroke="#263038" stroke-width="3"/>
<path d="M245.028 145.777C245.028 149.792 241.778 153.053 237.766 153.053C233.751 153.053 230.5 149.793 230.5 145.777C230.5 141.76 233.751 138.5 237.766 138.5C241.778 138.5 245.028 141.761 245.028 145.777Z" fill="#BEDCFF" stroke="#263038" stroke-width="3"/>
<path d="M347.5 372C347.5 375.59 344.589 378.5 341.002 378.5C337.412 378.5 334.5 375.591 334.5 372C334.5 368.41 337.412 365.5 341.002 365.5C344.589 365.5 347.5 368.41 347.5 372Z" fill="#BEDCFF" stroke="#263038" stroke-width="3"/>
<path d="M824.5 374.5C824.5 380.023 820.024 384.5 814.505 384.5C808.977 384.5 804.5 380.024 804.5 374.5C804.5 368.976 808.977 364.5 814.505 364.5C820.024 364.5 824.5 368.977 824.5 374.5Z" fill="#BEDCFF" stroke="#263038" stroke-width="3"/>
<path d="M697.653 275.631H602.2C600.607 275.631 599.32 274.336 599.32 272.745V231.57C599.32 229.98 600.608 228.686 602.2 228.686H697.653C699.245 228.686 700.533 229.98 700.533 231.57V272.745C700.533 274.336 699.246 275.631 697.653 275.631Z" fill="#7AA3D3" stroke="#263038" stroke-width="2"/>
<path d="M695.304 272.52H604.552C603.714 272.52 603.033 271.838 603.033 270.996V243.016C603.033 242.175 603.714 241.493 604.552 241.493H695.304C696.143 241.493 696.823 242.175 696.823 243.016V270.996C696.823 271.838 696.143 272.52 695.304 272.52" fill="white"/>
<path d="M607.451 236.501H605.25C604.785 236.501 604.406 236.121 604.406 235.655V233.84C604.406 233.373 604.785 232.993 605.25 232.993H607.451C607.917 232.993 608.296 233.373 608.296 233.84V235.655C608.296 236.121 607.917 236.501 607.451 236.501Z" fill="white"/>
<path d="M614.519 236.502H612.317C611.85 236.502 611.478 236.121 611.478 235.657V233.838C611.478 233.373 611.85 232.992 612.317 232.992H614.519C614.986 232.992 615.362 233.373 615.362 233.838V235.657C615.362 236.121 614.986 236.502 614.519 236.502Z" fill="white"/>
<path d="M621.587 236.5H619.385C618.92 236.5 618.543 236.122 618.543 235.656V233.837C618.543 233.371 618.92 232.993 619.385 232.993H621.587C622.053 232.993 622.43 233.371 622.43 233.837V235.656C622.43 236.122 622.053 236.5 621.587 236.5Z" fill="white"/>
<path d="M693.007 248.294H643.393C642.578 248.294 641.912 247.625 641.912 246.807C641.912 245.989 642.578 245.319 643.393 245.319H693.007C693.822 245.319 694.488 245.989 694.488 246.807C694.488 247.625 693.822 248.294 693.007 248.294Z" fill="#7AA3D3"/>
<path d="M661.093 265.977H611.485C610.664 265.977 610 265.307 610 264.489C610 263.671 610.664 263.002 611.485 263.002H661.093C661.91 263.002 662.578 263.671 662.578 264.489C662.578 265.307 661.91 265.977 661.093 265.977Z" fill="#7AA3D3"/>
<path d="M670.234 265.975H665.101C664.82 265.975 664.595 265.746 664.595 265.467V263.509C664.595 263.229 664.82 263 665.101 263H670.234C670.511 263 670.741 263.229 670.741 263.509V265.467C670.741 265.746 670.511 265.975 670.234 265.975Z" fill="#7AA3D3"/>
<path d="M677.975 265.975H672.841C672.56 265.975 672.332 265.746 672.332 265.466V263.509C672.332 263.229 672.56 263 672.841 263H677.975C678.252 263 678.48 263.229 678.48 263.509V265.466C678.48 265.746 678.252 265.975 677.975 265.975Z" fill="#7AA3D3"/>
<path d="M693.484 254.776H611.331C610.776 254.776 610.321 254.322 610.321 253.766C610.321 253.211 610.776 252.757 611.331 252.757H693.484C694.034 252.757 694.489 253.211 694.489 253.766C694.489 254.322 694.034 254.776 693.484 254.776Z" fill="#7AA3D3"/>
<path d="M693.484 259.133H611.331C610.776 259.133 610.321 258.679 610.321 258.123C610.321 257.568 610.776 257.114 611.331 257.114H693.484C694.034 257.114 694.489 257.568 694.489 258.123C694.489 258.679 694.034 259.133 693.484 259.133Z" fill="#7AA3D3"/>
<path d="M248.5 77C248.5 64.0219 259.017 53.5 271.993 53.5C284.969 53.5 295.486 64.0219 295.486 77C295.486 89.9782 284.969 100.5 271.993 100.5C259.017 100.5 248.5 89.9782 248.5 77Z" fill="white" stroke="#121C28" stroke-width="3"/>
<path d="M264.938 68.1723C264.938 64.2724 268.098 61.1108 271.996 61.1108C275.895 61.1108 279.055 64.2724 279.055 68.1723C279.055 72.0723 275.895 75.2332 271.996 75.2332C268.098 75.2332 264.938 72.0723 264.938 68.1723Z" fill="#D47670"/>
<path d="M271.999 75.2341C265.173 75.2341 259.644 80.7662 259.644 87.5908H284.347C284.347 80.7662 278.818 75.2341 271.999 75.2341" fill="#D47670"/>
<path d="M625.5 100.505C625.5 91.1139 633.11 83.5 642.5 83.5C651.89 83.5 659.5 91.1139 659.5 100.505C659.5 109.896 651.89 117.51 642.5 117.51C633.11 117.51 625.5 109.896 625.5 100.505Z" fill="white" stroke="#121C28" stroke-width="3"/>
<path d="M637.527 94.2834C637.527 91.5349 639.755 89.3067 642.502 89.3067C645.249 89.3067 647.477 91.5349 647.477 94.2834C647.477 97.032 645.249 99.2596 642.502 99.2596C639.755 99.2596 637.527 97.032 637.527 94.2834Z" fill="#D47670"/>
<path d="M642.503 99.2603C637.693 99.2603 633.796 103.159 633.796 107.969H651.206C651.206 103.159 647.31 99.2603 642.503 99.2603" fill="#D47670"/>
<path d="M95.5 382C95.5 373.992 101.989 367.5 109.996 367.5C118.003 367.5 124.492 373.992 124.492 382C124.492 390.008 118.003 396.5 109.996 396.5C101.989 396.5 95.5 390.008 95.5 382Z" fill="white" stroke="#121C28" stroke-width="3"/>
<path d="M105.826 376.784C105.826 374.479 107.694 372.611 109.997 372.611C112.301 372.611 114.168 374.479 114.168 376.784C114.168 379.088 112.301 380.956 109.997 380.956C107.694 380.956 105.826 379.088 105.826 376.784Z" fill="#D47670"/>
<path d="M109.999 380.956C105.966 380.956 102.698 384.225 102.698 388.258H117.296C117.296 384.225 114.029 380.956 109.999 380.956" fill="#D47670"/>
<path d="M875.5 332.505C875.5 323.114 883.11 315.5 892.5 315.5C901.89 315.5 909.5 323.114 909.5 332.505C909.5 341.896 901.89 349.51 892.5 349.51C883.11 349.51 875.5 341.896 875.5 332.505Z" fill="white" stroke="#121C28" stroke-width="3"/>
<path d="M887.527 326.283C887.527 323.535 889.755 321.307 892.502 321.307C895.249 321.307 897.477 323.535 897.477 326.283C897.477 329.032 895.249 331.26 892.502 331.26C889.755 331.26 887.527 329.032 887.527 326.283Z" fill="#D47670"/>
<path d="M892.503 331.26C887.693 331.26 883.796 335.159 883.796 339.969H901.206C901.206 335.159 897.31 331.26 892.503 331.26" fill="#D47670"/>
<path d="M62.5 226.505C62.5 216.01 71.0054 207.5 81.5 207.5C91.9946 207.5 100.5 216.01 100.5 226.505C100.5 237.001 91.9946 245.511 81.5 245.511C71.0054 245.511 62.5 237.001 62.5 226.505Z" fill="white" stroke="#121C28" stroke-width="3"/>
<path d="M75.8857 219.481C75.8857 216.378 78.4006 213.862 81.5025 213.862C84.6043 213.862 87.1192 216.378 87.1192 219.481C87.1192 222.585 84.6043 225.1 81.5025 225.1C78.4006 225.1 75.8857 222.585 75.8857 219.481Z" fill="#D47670"/>
<path d="M81.5047 225.1C76.0735 225.1 71.6738 229.502 71.6738 234.932H91.3308C91.3308 229.502 86.9311 225.1 81.5047 225.1" fill="#D47670"/>
</svg>
